TITLE ""
FILE "LR_black_phrase_S07.mp3" MP3
  TRACK 01 AUDIO
    TITLE "LR_black_phrase_S07_001"
    INDEX 01 00:00:00
  TRACK 02 AUDIO
    TITLE "LR_black_phrase_S07_002"
    INDEX 01 00:00:16
  TRACK 03 AUDIO
    TITLE "LR_black_phrase_S07_003"
    INDEX 01 00:01:53
  TRACK 04 AUDIO
    TITLE "LR_black_phrase_S07_004"
    INDEX 01 00:02:17
  TRACK 05 AUDIO
    TITLE "LR_black_phrase_S07_005"
    INDEX 01 00:04:51
  TRACK 06 AUDIO
    TITLE "LR_black_phrase_S07_006"
    INDEX 01 00:05:49
  TRACK 07 AUDIO
    TITLE "LR_black_phrase_S07_007"
    INDEX 01 00:08:65
  TRACK 08 AUDIO
    TITLE "LR_black_phrase_S07_008"
    INDEX 01 00:09:29
  TRACK 09 AUDIO
    TITLE "LR_black_phrase_S07_009"
    INDEX 01 00:12:27
  TRACK 10 AUDIO
    TITLE "LR_black_phrase_S07_010"
    INDEX 01 00:12:55
  TRACK 11 AUDIO
    TITLE "LR_black_phrase_S07_011"
    INDEX 01 00:15:51
  TRACK 12 AUDIO
    TITLE "LR_black_phrase_S07_012"
    INDEX 01 00:16:58
  TRACK 13 AUDIO
    TITLE "LR_black_phrase_S07_013"
    INDEX 01 00:18:06
  TRACK 14 AUDIO
    TITLE "LR_black_phrase_S07_014"
    INDEX 01 00:18:45
  TRACK 15 AUDIO
    TITLE "LR_black_phrase_S07_015"
    INDEX 01 00:21:16
  TRACK 16 AUDIO
    TITLE "LR_black_phrase_S07_016"
    INDEX 01 00:22:18
  TRACK 17 AUDIO
    TITLE "LR_black_phrase_S07_017"
    INDEX 01 00:24:28
  TRACK 18 AUDIO
    TITLE "LR_black_phrase_S07_018"
    INDEX 01 00:24:68
  TRACK 19 AUDIO
    TITLE "LR_black_phrase_S07_019"
    INDEX 01 00:27:03
  TRACK 20 AUDIO
    TITLE "LR_black_phrase_S07_020"
    INDEX 01 00:27:33
  TRACK 21 AUDIO
    TITLE "LR_black_phrase_S07_021"
    INDEX 01 00:29:43
  TRACK 22 AUDIO
    TITLE "LR_black_phrase_S07_022"
    INDEX 01 00:30:51
  TRACK 23 AUDIO
    TITLE "LR_black_phrase_S07_023"
    INDEX 01 00:32:10
  TRACK 24 AUDIO
    TITLE "LR_black_phrase_S07_024"
    INDEX 01 00:32:46
  TRACK 25 AUDIO
    TITLE "LR_black_phrase_S07_025"
    INDEX 01 00:33:61
  TRACK 26 AUDIO
    TITLE "LR_black_phrase_S07_026"
    INDEX 01 00:34:56
  TRACK 27 AUDIO
    TITLE "LR_black_phrase_S07_027"
    INDEX 01 00:36:39
  TRACK 28 AUDIO
    TITLE "LR_black_phrase_S07_028"
    INDEX 01 00:37:00
  TRACK 29 AUDIO
    TITLE "LR_black_phrase_S07_029"
    INDEX 01 00:39:24
  TRACK 30 AUDIO
    TITLE "LR_black_phrase_S07_030"
    INDEX 01 00:39:51
  TRACK 31 AUDIO
    TITLE "LR_black_phrase_S07_031"
    INDEX 01 00:41:72
  TRACK 32 AUDIO
    TITLE "LR_black_phrase_S07_032"
    INDEX 01 00:42:69
  TRACK 33 AUDIO
    TITLE "LR_black_phrase_S07_033"
    INDEX 01 00:44:13
  TRACK 34 AUDIO
    TITLE "LR_black_phrase_S07_034"
    INDEX 01 00:44:51
  TRACK 35 AUDIO
    TITLE "LR_black_phrase_S07_035"
    INDEX 01 00:46:50
  TRACK 36 AUDIO
    TITLE "LR_black_phrase_S07_036"
    INDEX 01 00:47:49
  TRACK 37 AUDIO
    TITLE "LR_black_phrase_S07_037"
    INDEX 01 00:49:40
  TRACK 38 AUDIO
    TITLE "LR_black_phrase_S07_038"
    INDEX 01 00:50:00
  TRACK 39 AUDIO
    TITLE "LR_black_phrase_S07_039"
    INDEX 01 00:52:29
  TRACK 40 AUDIO
    TITLE "LR_black_phrase_S07_040"
    INDEX 01 00:52:52
  TRACK 41 AUDIO
    TITLE "LR_black_phrase_S07_041"
    INDEX 01 00:55:05
  TRACK 42 AUDIO
    TITLE "LR_black_phrase_S07_042"
    INDEX 01 00:56:11
  TRACK 43 AUDIO
    TITLE "LR_black_phrase_S07_043"
    INDEX 01 00:57:30
  TRACK 44 AUDIO
    TITLE "LR_black_phrase_S07_044"
    INDEX 01 00:57:67
  TRACK 45 AUDIO
    TITLE "LR_black_phrase_S07_045"
    INDEX 01 01:00:22
  TRACK 46 AUDIO
    TITLE "LR_black_phrase_S07_046"
    INDEX 01 01:01:22
  TRACK 47 AUDIO
    TITLE "LR_black_phrase_S07_047"
    INDEX 01 01:03:62
  TRACK 48 AUDIO
    TITLE "LR_black_phrase_S07_048"
    INDEX 01 01:04:28
  TRACK 49 AUDIO
    TITLE "LR_black_phrase_S07_049"
    INDEX 01 01:07:26
  TRACK 50 AUDIO
    TITLE "LR_black_phrase_S07_050"
    INDEX 01 01:07:58
  TRACK 51 AUDIO
    TITLE "LR_black_phrase_S07_051"
    INDEX 01 01:10:56
  TRACK 52 AUDIO
    TITLE "LR_black_phrase_S07_052"
    INDEX 01 01:11:63
  TRACK 53 AUDIO
    TITLE "LR_black_phrase_S07_053"
    INDEX 01 01:13:07
  TRACK 54 AUDIO
    TITLE "LR_black_phrase_S07_054"
    INDEX 01 01:13:46
  TRACK 55 AUDIO
    TITLE "LR_black_phrase_S07_055"
    INDEX 01 01:14:73
  TRACK 56 AUDIO
    TITLE "LR_black_phrase_S07_056"
    INDEX 01 01:15:73
  TRACK 57 AUDIO
    TITLE "LR_black_phrase_S07_057"
    INDEX 01 01:18:24
  TRACK 58 AUDIO
    TITLE "LR_black_phrase_S07_058"
    INDEX 01 01:18:63
  TRACK 59 AUDIO
    TITLE "LR_black_phrase_S07_059"
    INDEX 01 01:21:36
  TRACK 60 AUDIO
    TITLE "LR_black_phrase_S07_060"
    INDEX 01 01:21:70
  TRACK 61 AUDIO
    TITLE "LR_black_phrase_S07_061"
    INDEX 01 01:24:42
  TRACK 62 AUDIO
    TITLE "LR_black_phrase_S07_062"
    INDEX 01 01:25:52
  TRACK 63 AUDIO
    TITLE "LR_black_phrase_S07_063"
    INDEX 01 01:27:09
  TRACK 64 AUDIO
    TITLE "LR_black_phrase_S07_064"
    INDEX 01 01:27:47
  TRACK 65 AUDIO
    TITLE "LR_black_phrase_S07_065"
    INDEX 01 01:29:18
  TRACK 66 AUDIO
    TITLE "LR_black_phrase_S07_066"
    INDEX 01 01:30:18
  TRACK 67 AUDIO
    TITLE "LR_black_phrase_S07_067"
    INDEX 01 01:32:14
  TRACK 68 AUDIO
    TITLE "LR_black_phrase_S07_068"
    INDEX 01 01:32:48
  TRACK 69 AUDIO
    TITLE "LR_black_phrase_S07_069"
    INDEX 01 01:34:45
  TRACK 70 AUDIO
    TITLE "LR_black_phrase_S07_070"
    INDEX 01 01:34:68
  TRACK 71 AUDIO
    TITLE "LR_black_phrase_S07_071"
    INDEX 01 01:36:65
  TRACK 72 AUDIO
    TITLE "LR_black_phrase_S07_072"
    INDEX 01 01:37:67
  TRACK 73 AUDIO
    TITLE "LR_black_phrase_S07_073"
    INDEX 01 01:39:16
  TRACK 74 AUDIO
    TITLE "LR_black_phrase_S07_074"
    INDEX 01 01:39:50
  TRACK 75 AUDIO
    TITLE "LR_black_phrase_S07_075"
    INDEX 01 01:43:22
  TRACK 76 AUDIO
    TITLE "LR_black_phrase_S07_076"
    INDEX 01 01:44:22
  TRACK 77 AUDIO
    TITLE "LR_black_phrase_S07_077"
    INDEX 01 01:46:22
  TRACK 78 AUDIO
    TITLE "LR_black_phrase_S07_078"
    INDEX 01 01:46:58
  TRACK 79 AUDIO
    TITLE "LR_black_phrase_S07_079"
    INDEX 01 01:48:62
  TRACK 80 AUDIO
    TITLE "LR_black_phrase_S07_080"
    INDEX 01 01:49:07
  TRACK 81 AUDIO
    TITLE "LR_black_phrase_S07_081"
    INDEX 01 01:51:12
  TRACK 82 AUDIO
    TITLE "LR_black_phrase_S07_082"
    INDEX 01 01:52:13
  TRACK 83 AUDIO
    TITLE "LR_black_phrase_S07_083"
    INDEX 01 01:53:56
  TRACK 84 AUDIO
    TITLE "LR_black_phrase_S07_084"
    INDEX 01 01:54:20
  TRACK 85 AUDIO
    TITLE "LR_black_phrase_S07_085"
    INDEX 01 01:55:45
  TRACK 86 AUDIO
    TITLE "LR_black_phrase_S07_086"
    INDEX 01 01:56:42
  TRACK 87 AUDIO
    TITLE "LR_black_phrase_S07_087"
    INDEX 01 01:58:59
  TRACK 88 AUDIO
    TITLE "LR_black_phrase_S07_088"
    INDEX 01 01:59:27
  TRACK 89 AUDIO
    TITLE "LR_black_phrase_S07_089"
    INDEX 01 02:01:53
  TRACK 90 AUDIO
    TITLE "LR_black_phrase_S07_090"
    INDEX 01 02:02:10
  TRACK 91 AUDIO
    TITLE "LR_black_phrase_S07_091"
    INDEX 01 02:04:36
  TRACK 92 AUDIO
    TITLE "LR_black_phrase_S07_092"
    INDEX 01 02:05:39
  TRACK 93 AUDIO
    TITLE "LR_black_phrase_S07_093"
    INDEX 01 02:06:58
  TRACK 94 AUDIO
    TITLE "LR_black_phrase_S07_094"
    INDEX 01 02:07:23
  TRACK 95 AUDIO
    TITLE "LR_black_phrase_S07_095"
    INDEX 01 02:10:01
  TRACK 96 AUDIO
    TITLE "LR_black_phrase_S07_096"
    INDEX 01 02:10:70
  TRACK 97 AUDIO
    TITLE "LR_black_phrase_S07_097"
    INDEX 01 02:12:55
  TRACK 98 AUDIO
    TITLE "LR_black_phrase_S07_098"
    INDEX 01 02:13:21
  TRACK 99 AUDIO
    TITLE "LR_black_phrase_S07_099"
    INDEX 01 02:15:03
  TRACK 100 AUDIO
    TITLE "LR_black_phrase_S07_100"
    INDEX 01 02:15:36
  TRACK 101 AUDIO
    TITLE "LR_black_phrase_S07_101"
    INDEX 01 02:17:17
  TRACK 102 AUDIO
    TITLE "LR_black_phrase_S07_102"
    INDEX 01 02:18:28
  TRACK 103 AUDIO
    TITLE "LR_black_phrase_S07_103"
    INDEX 01 02:19:43
  TRACK 104 AUDIO
    TITLE "LR_black_phrase_S07_104"
    INDEX 01 02:20:10
  TRACK 105 AUDIO
    TITLE "LR_black_phrase_S07_105"
    INDEX 01 02:22:67
  TRACK 106 AUDIO
    TITLE "LR_black_phrase_S07_106"
    INDEX 01 02:23:67
  TRACK 107 AUDIO
    TITLE "LR_black_phrase_S07_107"
    INDEX 01 02:26:22
  TRACK 108 AUDIO
    TITLE "LR_black_phrase_S07_108"
    INDEX 01 02:26:57
  TRACK 109 AUDIO
    TITLE "LR_black_phrase_S07_109"
    INDEX 01 02:29:10
  TRACK 110 AUDIO
    TITLE "LR_black_phrase_S07_110"
    INDEX 01 02:29:30
  TRACK 111 AUDIO
    TITLE "LR_black_phrase_S07_111"
    INDEX 01 02:31:56
  TRACK 112 AUDIO
    TITLE "LR_black_phrase_S07_112"
    INDEX 01 02:32:52
  TRACK 113 AUDIO
    TITLE "LR_black_phrase_S07_113"
    INDEX 01 02:33:51
  TRACK 114 AUDIO
    TITLE "LR_black_phrase_S07_114"
    INDEX 01 02:34:10
  TRACK 115 AUDIO
    TITLE "LR_black_phrase_S07_115"
    INDEX 01 02:35:27
  TRACK 116 AUDIO
    TITLE "LR_black_phrase_S07_116"
    INDEX 01 02:36:26
  TRACK 117 AUDIO
    TITLE "LR_black_phrase_S07_117"
    INDEX 01 02:38:27
  TRACK 118 AUDIO
    TITLE "LR_black_phrase_S07_118"
    INDEX 01 02:38:60
  TRACK 119 AUDIO
    TITLE "LR_black_phrase_S07_119"
    INDEX 01 02:40:48
  TRACK 120 AUDIO
    TITLE "LR_black_phrase_S07_120"
    INDEX 01 02:40:67
  TRACK 121 AUDIO
    TITLE "LR_black_phrase_S07_121"
    INDEX 01 02:42:54
  TRACK 122 AUDIO
    TITLE "LR_black_phrase_S07_122"
    INDEX 01 02:43:50
  TRACK 123 AUDIO
    TITLE "LR_black_phrase_S07_123"
    INDEX 01 02:44:63
  TRACK 124 AUDIO
    TITLE "LR_black_phrase_S07_124"
    INDEX 01 02:45:27
  TRACK 125 AUDIO
    TITLE "LR_black_phrase_S07_125"
    INDEX 01 02:48:31
  TRACK 126 AUDIO
    TITLE "LR_black_phrase_S07_126"
    INDEX 01 02:49:33
  TRACK 127 AUDIO
    TITLE "LR_black_phrase_S07_127"
    INDEX 01 02:52:06
  TRACK 128 AUDIO
    TITLE "LR_black_phrase_S07_128"
    INDEX 01 02:52:45
  TRACK 129 AUDIO
    TITLE "LR_black_phrase_S07_129"
    INDEX 01 02:55:00
  TRACK 130 AUDIO
    TITLE "LR_black_phrase_S07_130"
    INDEX 01 02:55:31
  TRACK 131 AUDIO
    TITLE "LR_black_phrase_S07_131"
    INDEX 01 02:57:64
  TRACK 132 AUDIO
    TITLE "LR_black_phrase_S07_132"
    INDEX 01 02:58:69
  TRACK 133 AUDIO
    TITLE "LR_black_phrase_S07_133"
    INDEX 01 03:00:09
  TRACK 134 AUDIO
    TITLE "LR_black_phrase_S07_134"
    INDEX 01 03:00:48
  TRACK 135 AUDIO
    TITLE "LR_black_phrase_S07_135"
    INDEX 01 03:03:15
  TRACK 136 AUDIO
    TITLE "LR_black_phrase_S07_136"
    INDEX 01 03:04:15
  TRACK 137 AUDIO
    TITLE "LR_black_phrase_S07_137"
    INDEX 01 03:06:08
  TRACK 138 AUDIO
    TITLE "LR_black_phrase_S07_138"
    INDEX 01 03:06:47
  TRACK 139 AUDIO
    TITLE "LR_black_phrase_S07_139"
    INDEX 01 03:08:34
  TRACK 140 AUDIO
    TITLE "LR_black_phrase_S07_140"
    INDEX 01 03:08:65
  TRACK 141 AUDIO
    TITLE "LR_black_phrase_S07_141"
    INDEX 01 03:10:54
  TRACK 142 AUDIO
    TITLE "LR_black_phrase_S07_142"
    INDEX 01 03:11:54
  TRACK 143 AUDIO
    TITLE "LR_black_phrase_S07_143"
    INDEX 01 03:12:59
  TRACK 144 AUDIO
    TITLE "LR_black_phrase_S07_144"
    INDEX 01 03:13:20
  TRACK 145 AUDIO
    TITLE "LR_black_phrase_S07_145"
    INDEX 01 03:14:31
  TRACK 146 AUDIO
    TITLE "LR_black_phrase_S07_146"
    INDEX 01 03:15:30
  TRACK 147 AUDIO
    TITLE "LR_black_phrase_S07_147"
    INDEX 01 03:17:74
  TRACK 148 AUDIO
    TITLE "LR_black_phrase_S07_148"
    INDEX 01 03:18:34
  TRACK 149 AUDIO
    TITLE "LR_black_phrase_S07_149"
    INDEX 01 03:21:05
  TRACK 150 AUDIO
    TITLE "LR_black_phrase_S07_150"
    INDEX 01 03:21:29
  TRACK 151 AUDIO
    TITLE "LR_black_phrase_S07_151"
    INDEX 01 03:24:02
  TRACK 152 AUDIO
    TITLE "LR_black_phrase_S07_152"
    INDEX 01 03:24:72
  TRACK 153 AUDIO
    TITLE "LR_black_phrase_S07_153"
    INDEX 01 03:26:18
  TRACK 154 AUDIO
    TITLE "LR_black_phrase_S07_154"
    INDEX 01 03:26:50
  TRACK 155 AUDIO
    TITLE "LR_black_phrase_S07_155"
    INDEX 01 03:28:19
  TRACK 156 AUDIO
    TITLE "LR_black_phrase_S07_156"
    INDEX 01 03:29:17
  TRACK 157 AUDIO
    TITLE "LR_black_phrase_S07_157"
    INDEX 01 03:31:10
  TRACK 158 AUDIO
    TITLE "LR_black_phrase_S07_158"
    INDEX 01 03:31:45
  TRACK 159 AUDIO
    TITLE "LR_black_phrase_S07_159"
    INDEX 01 03:33:34
  TRACK 160 AUDIO
    TITLE "LR_black_phrase_S07_160"
    INDEX 01 03:33:56
  TRACK 161 AUDIO
    TITLE "LR_black_phrase_S07_161"
    INDEX 01 03:35:45
  TRACK 162 AUDIO
    TITLE "LR_black_phrase_S07_162"
    INDEX 01 03:36:48
  TRACK 163 AUDIO
    TITLE "LR_black_phrase_S07_163"
    INDEX 01 03:37:55
  TRACK 164 AUDIO
    TITLE "LR_black_phrase_S07_164"
    INDEX 01 03:38:19
  TRACK 165 AUDIO
    TITLE "LR_black_phrase_S07_165"
    INDEX 01 03:39:58
  TRACK 166 AUDIO
    TITLE "LR_black_phrase_S07_166"
    INDEX 01 03:40:58
  TRACK 167 AUDIO
    TITLE "LR_black_phrase_S07_167"
    INDEX 01 03:43:27
  TRACK 168 AUDIO
    TITLE "LR_black_phrase_S07_168"
    INDEX 01 03:43:66
  TRACK 169 AUDIO
    TITLE "LR_black_phrase_S07_169"
    INDEX 01 03:46:09
  TRACK 170 AUDIO
    TITLE "LR_black_phrase_S07_170"
    INDEX 01 03:46:43
  TRACK 171 AUDIO
    TITLE "LR_black_phrase_S07_171"
    INDEX 01 03:48:59
  TRACK 172 AUDIO
    TITLE "LR_black_phrase_S07_172"
    INDEX 01 03:49:66
  TRACK 173 AUDIO
    TITLE "LR_black_phrase_S07_173"
    INDEX 01 03:51:03
  TRACK 174 AUDIO
    TITLE "LR_black_phrase_S07_174"
    INDEX 01 03:51:44
  TRACK 175 AUDIO
    TITLE "LR_black_phrase_S07_175"
    INDEX 01 03:53:62
  TRACK 176 AUDIO
    TITLE "LR_black_phrase_S07_176"
    INDEX 01 03:54:60
  TRACK 177 AUDIO
    TITLE "LR_black_phrase_S07_177"
    INDEX 01 03:57:13
  TRACK 178 AUDIO
    TITLE "LR_black_phrase_S07_178"
    INDEX 01 03:57:52
  TRACK 179 AUDIO
    TITLE "LR_black_phrase_S07_179"
    INDEX 01 04:00:05
  TRACK 180 AUDIO
    TITLE "LR_black_phrase_S07_180"
    INDEX 01 04:00:35
  TRACK 181 AUDIO
    TITLE "LR_black_phrase_S07_181"
    INDEX 01 04:02:65
  TRACK 182 AUDIO
    TITLE "LR_black_phrase_S07_182"
    INDEX 01 04:03:64
  TRACK 183 AUDIO
    TITLE "LR_black_phrase_S07_183"
    INDEX 01 04:04:74
  TRACK 184 AUDIO
    TITLE "LR_black_phrase_S07_184"
    INDEX 01 04:05:38
  TRACK 185 AUDIO
    TITLE "LR_black_phrase_S07_185"
    INDEX 01 04:07:47
  TRACK 186 AUDIO
    TITLE "LR_black_phrase_S07_186"
    INDEX 01 04:08:48
  TRACK 187 AUDIO
    TITLE "LR_black_phrase_S07_187"
    INDEX 01 04:10:66
  TRACK 188 AUDIO
    TITLE "LR_black_phrase_S07_188"
    INDEX 01 04:11:23
  TRACK 189 AUDIO
    TITLE "LR_black_phrase_S07_189"
    INDEX 01 04:13:39
  TRACK 190 AUDIO
    TITLE "LR_black_phrase_S07_190"
    INDEX 01 04:13:61
  TRACK 191 AUDIO
    TITLE "LR_black_phrase_S07_191"
    INDEX 01 04:16:02
  TRACK 192 AUDIO
    TITLE "LR_black_phrase_S07_192"
    INDEX 01 04:16:73
  TRACK 193 AUDIO
    TITLE "LR_black_phrase_S07_193"
    INDEX 01 04:18:31
  TRACK 194 AUDIO
    TITLE "LR_black_phrase_S07_194"
    INDEX 01 04:18:70
  TRACK 195 AUDIO
    TITLE "LR_black_phrase_S07_195"
    INDEX 01 04:21:39
  TRACK 196 AUDIO
    TITLE "LR_black_phrase_S07_196"
    INDEX 01 04:22:40
  TRACK 197 AUDIO
    TITLE "LR_black_phrase_S07_197"
    INDEX 01 04:24:35
  TRACK 198 AUDIO
    TITLE "LR_black_phrase_S07_198"
    INDEX 01 04:24:72
  TRACK 199 AUDIO
    TITLE "LR_black_phrase_S07_199"
    INDEX 01 04:27:28
  TRACK 200 AUDIO
    TITLE "LR_black_phrase_S07_200"
    INDEX 01 04:27:51
  TRACK 201 AUDIO
    TITLE "LR_black_phrase_S07_201"
    INDEX 01 04:30:05
